<svg width="160" height="25" viewBox="0 0 160 25" fill="none" xmlns="http://www.w3.org/2000/svg">
<path d="M46.4487 9.80656C46.9712 10.0953 47.6824 10.283 47.6824 10.283C48.0307 10.413 49.4822 10.644 49.4822 10.644C49.9611 10.6873 50.382 10.8172 50.382 10.8172C51.0061 10.9905 51.4416 11.2793 51.4416 11.2793C52.2979 11.8135 52.4431 12.1889 52.4431 12.1889C52.6172 12.5642 52.0947 12.6798 52.0947 12.6798C51.5577 12.8675 50.7159 12.4199 50.7159 12.4199C50.2659 12.1744 49.6563 12.0156 49.1483 12.03C48.5823 12.0445 48.0307 12.16 47.4647 12.2466C47.1599 12.2899 46.8551 12.3621 46.5503 12.4054C46.2455 12.4487 46.0568 12.4487 45.8246 12.4632C45.7956 12.4632 45.781 12.4632 45.752 12.4632C44.5473 12.4921 43.4152 12.0589 43.4152 12.0589C43.4152 12.0589 41.6445 11.2937 40.4108 12.6798L40.3818 12.7231C37.8998 16.0439 34.7357 17.6465 33.1392 18.1229C33.1392 18.1229 32.994 18.1663 32.965 18.1663C32.486 18.3106 31.92 18.3684 31.7458 18.3828C31.7313 18.3828 31.6733 18.3828 31.6297 18.3828C31.4555 18.3973 31.3539 18.4406 31.2959 18.6572C31.2523 18.7871 31.1507 19.0903 31.1362 19.1336C31.1072 19.2058 31.0927 19.2347 31.0927 19.2347L31.0491 19.3213C30.4541 20.3753 29.6122 21.1117 28.5527 21.6892C26.1433 23.0175 23.0518 22.5843 20.4828 21.9058C19.1475 21.5737 17.7396 21.9058 17.7251 21.9058C16.4043 22.1656 15.2577 23.133 15.2432 23.133C14.3143 23.8549 13.4725 24.7501 13.4725 24.7501C13.0951 25.1255 12.8338 24.9666 12.8338 24.9522C12.6016 24.7934 12.7467 24.4757 12.7467 24.4757C12.8629 24.1581 13.2257 23.6239 13.2257 23.6239C14.4014 21.7902 16.593 20.3464 16.593 20.3464C17.2897 19.9855 18.0299 19.9422 18.0299 19.9422C19.0314 19.9422 19.7861 19.5668 20.2361 19.2636C20.5554 19.047 20.7876 18.7294 21.0053 18.3973L21.3682 17.8197C21.731 17.1123 21.1795 16.4626 20.178 16.4337C20.178 16.4337 19.4088 16.4337 19.2781 16.4337C16.0415 16.7513 13.4725 15.6829 13.4725 15.6829C12.3549 15.192 10.0471 14.5423 10.0471 14.5423C6.38953 13.4594 2.49972 13.7915 0.612879 14.0658C0.162939 14.1236 -0.170887 13.6471 0.104882 13.2862C2.22395 10.4563 4.77845 9.57554 4.77845 9.57554C8.5086 7.8574 12.7758 10.0809 12.7758 10.0809L16.6365 11.6546C18.0154 12.2177 19.5249 12.4632 21.0198 12.3332C22.3697 12.2177 23.197 11.7557 24.3 10.976C25.0112 10.4563 25.7369 9.99425 26.5062 9.56111C28.4656 8.46381 30.8459 7.97291 33.0811 7.88628C34.9535 7.81409 37.1886 8.31942 38.8578 7.19324C38.9303 7.14993 39.061 7.0633 39.2206 6.94779C39.6996 6.5724 39.7141 5.89381 39.7141 5.27297C39.7141 3.95909 40.3672 3.06392 40.7011 2.71741C40.8027 2.6019 40.8317 2.45752 40.8027 2.31314C40.7591 2.12544 40.7591 1.92331 40.7591 1.70673C40.7591 1.40353 40.8462 1.11477 40.9623 0.826005C41.0494 0.652747 41.151 0.421736 41.2381 0.291793C41.2816 0.219602 41.3687 0.132973 41.4413 0.0752199C41.8477 -0.199106 42.3267 0.335107 42.5008 1.04258C42.6169 1.51904 42.9943 1.64898 43.3862 1.67786C44.0248 1.67786 44.9973 1.70673 45.6069 2.06769C45.6069 2.06769 46.3616 2.41421 47.305 3.78583C47.305 3.78583 48.0598 4.69544 49.0612 5.08527C49.366 5.20077 49.6273 5.41735 49.6418 5.73499C49.6418 5.83605 49.6418 5.90825 49.6273 6.02375C49.5838 6.21145 49.5112 6.41358 49.3806 6.58684C49.3806 6.58684 48.9742 7.251 47.3486 7.58308L46.0713 7.69858C46.0713 7.69858 45.6359 7.69858 45.273 8.00178C44.9392 8.27611 44.8812 8.8392 45.244 9.09908C45.752 9.51779 46.4487 9.84987 46.4487 9.84987V9.80656Z" fill="white"></path>
<path d="M18.9448 15.3511C19.9608 15.5099 21.1074 16.1885 21.0783 16.6939C20.9913 16.6361 20.672 16.434 20.0769 16.434C19.1915 16.434 19.2641 16.4629 18.669 16.4917C18.19 16.5495 16.2742 16.5639 14.4163 16.0008C13.2842 15.6688 12.5295 15.2934 11.528 14.9902C10.6572 14.7303 10.2362 14.557 8.59615 14.1816C5.67879 13.6185 3.35652 13.7918 1.55676 13.9506C0.758483 14.0517 0.381114 14.1383 0.279514 13.9939C-0.0252838 13.8351 -0.0688262 13.5175 0.0908299 13.272C1.39711 11.5394 2.90658 10.4855 4.00966 9.90793C9.52505 8.40636 12.8923 12.3624 14.0535 13.2865C15.2146 14.2105 16.8547 15.0046 18.9157 15.3367L18.9448 15.3511Z" fill="#D5D5D5"></path>
<path d="M49.3084 5.60507C48.1473 5.72058 47.0152 5.2008 45.8396 5.63395C45.0993 5.90828 44.4026 6.58687 44.214 7.35209C44.0688 7.9585 44.4897 8.70928 45.1429 8.96917C45.0268 8.82479 44.9687 8.65153 44.9977 8.42052C45.0413 8.20395 45.1719 8.03069 45.317 7.92962C45.6073 7.74193 45.8976 7.66973 46.2314 7.6553C46.275 7.6553 46.7249 7.61198 46.7249 7.61198C47.4216 7.55423 47.9151 7.4676 48.5827 7.14996C49.1343 6.89007 49.5842 6.54356 49.6423 5.86496C49.6423 5.80721 49.6423 5.73502 49.6423 5.66283C49.6423 5.59063 49.6132 5.53288 49.5987 5.50401C49.5697 5.53288 49.4246 5.60507 49.2939 5.61951L49.3084 5.60507Z" fill="#D5D5D5"></path>
<path d="M63.1512 0.422882H60.2677V15.3019H62.393H63.1512H70.0095V12.7421H63.1512V0.422882Z" fill="white"></path>
<path d="M78.8897 5.50812C78.1315 5.06244 77.2584 4.84531 76.259 4.84531C75.2595 4.84531 74.3405 5.08529 73.5133 5.55383C72.6862 6.02237 72.0429 6.66233 71.5719 7.46228C71.1009 8.26223 70.8596 9.16503 70.8596 10.1821C70.8596 11.1992 71.1009 12.1248 71.5949 12.9362C72.0888 13.7362 72.7437 14.3761 73.5823 14.8332C74.4209 15.2903 75.3744 15.5189 76.4543 15.5189C77.5341 15.5189 78.0626 15.3703 78.7863 15.0732C79.4986 14.7761 80.1075 14.3418 80.6014 13.759L78.9587 12.1248C78.6485 12.4791 78.2809 12.7419 77.8558 12.9134C77.4308 13.0848 76.9597 13.1762 76.4313 13.1762C75.9028 13.1762 75.3399 13.0505 74.9034 12.8105C74.4669 12.5591 74.1222 12.2163 73.8925 11.7477C73.8005 11.5649 73.7201 11.3706 73.6742 11.1649L81.1873 11.142C81.2448 10.9021 81.2792 10.6849 81.3022 10.5021C81.3252 10.3192 81.3367 10.125 81.3367 9.94212C81.3367 8.97075 81.1184 8.10224 80.6933 7.32515C80.2568 6.55948 79.6594 5.95381 78.9012 5.50812H78.8897ZM74.8115 7.51942C75.2251 7.26801 75.7076 7.15373 76.259 7.15373C76.8104 7.15373 77.224 7.26801 77.5916 7.48514C77.9477 7.70226 78.2349 8.02224 78.4187 8.42222C78.5106 8.61649 78.5796 8.84505 78.637 9.08503H73.6627C73.7086 8.91361 73.7776 8.73077 73.8695 8.55935C74.0877 8.11367 74.4094 7.77083 74.8115 7.51942Z" fill="white"></path>
<path d="M90.1595 5.94266C89.8952 5.69124 89.5966 5.48554 89.2519 5.31412C88.666 5.017 87.9882 4.86844 87.2186 4.86844C86.4489 4.86844 85.4609 5.08557 84.7257 5.53125C83.9904 5.97694 83.4045 6.58261 82.991 7.33685C82.5774 8.10252 82.3591 8.9596 82.3591 9.91954C82.3591 10.8795 82.5659 11.748 82.991 12.5251C83.4045 13.3022 83.9904 13.9079 84.7257 14.3535C85.4609 14.7992 86.288 15.0164 87.2186 15.0164C88.1491 15.0164 88.6431 14.8678 89.2289 14.5821C89.5736 14.4107 89.8723 14.205 90.1365 13.9536V14.7992C90.1365 15.5763 89.8838 16.182 89.3783 16.6163C88.8728 17.0505 88.195 17.2676 87.3219 17.2676C86.4489 17.2676 86.0353 17.1419 85.5413 16.9019C85.0473 16.6505 84.6108 16.2963 84.2087 15.8277L82.4395 17.5876C82.9335 18.2961 83.5998 18.8447 84.4385 19.2332C85.2771 19.6218 86.2421 19.816 87.3334 19.816C88.4248 19.816 89.3898 19.5989 90.2284 19.1761C91.067 18.7533 91.7218 18.159 92.1928 17.4048C92.6639 16.6505 92.9051 15.7592 92.9051 14.7535V5.06271H90.1365V5.93123L90.1595 5.94266ZM89.1026 12.1823C88.7235 12.3994 88.2869 12.5137 87.77 12.5137C87.253 12.5137 86.8165 12.3994 86.4259 12.1708C86.0468 11.9423 85.7481 11.6337 85.5298 11.2452C85.3115 10.8566 85.2082 10.4224 85.2082 9.9424C85.2082 9.46243 85.3115 9.00531 85.5298 8.61677C85.7481 8.22822 86.0353 7.9311 86.4259 7.70254C86.805 7.48541 87.253 7.37114 87.77 7.37114C88.2869 7.37114 88.7235 7.48541 89.1026 7.70254C89.4817 7.91967 89.7689 8.21679 89.9872 8.60534C90.2054 8.98246 90.3088 9.42815 90.3088 9.9424C90.3088 10.4567 90.2054 10.8795 89.9872 11.268C89.7689 11.6566 89.4817 11.9651 89.1026 12.1823Z" fill="white"></path>
<path d="M102.647 6.05693C102.36 5.75981 102.027 5.5084 101.648 5.31412C101.062 5.017 100.407 4.86844 99.6716 4.86844C98.9364 4.86844 97.891 5.097 97.1443 5.56554C96.3976 6.03408 95.8002 6.66261 95.3751 7.47399C94.9501 8.27393 94.7318 9.18816 94.7318 10.2052C94.7318 11.2223 94.9501 12.1137 95.3751 12.9136C95.8002 13.7136 96.3861 14.3535 97.1443 14.8221C97.891 15.2906 98.7411 15.5192 99.6716 15.5192C100.602 15.5192 101.073 15.3706 101.648 15.0621C102.038 14.8564 102.36 14.6164 102.647 14.3193V15.3135H105.416V5.08557H102.647V6.05693ZM102.073 12.1823C101.59 12.6965 100.958 12.9593 100.177 12.9593C99.3959 12.9593 99.2121 12.8451 98.8215 12.6051C98.4309 12.3765 98.1208 12.0451 97.9025 11.6337C97.6842 11.2223 97.5693 10.7309 97.5693 10.1824C97.5693 9.63385 97.6842 9.1653 97.9025 8.7539C98.1208 8.3425 98.4309 8.01109 98.8215 7.78254C99.2121 7.55398 99.6602 7.42827 100.177 7.42827C100.694 7.42827 101.154 7.54255 101.544 7.78254C101.935 8.01109 102.233 8.3425 102.463 8.7539C102.682 9.1653 102.796 9.64527 102.796 10.1824C102.796 11.0052 102.555 11.668 102.073 12.1823Z" fill="white"></path>
<path d="M110.666 0H107.874V15.3019H110.666V0Z" fill="white"></path>
<path d="M121.866 7.80529C121.453 7.46245 120.982 7.18819 120.488 6.98249C119.982 6.76536 119.477 6.58251 118.983 6.41109C118.477 6.23968 118.018 6.06826 117.604 5.88541C117.191 5.70257 116.846 5.48544 116.593 5.23403C116.341 4.98261 116.214 4.65121 116.214 4.23981C116.214 3.8284 116.41 3.39415 116.789 3.14273C117.168 2.89132 117.696 2.76562 118.362 2.76562C119.029 2.76562 119.465 2.87989 119.925 3.10845C120.384 3.33701 120.832 3.69127 121.28 4.17124L123.199 2.26279C122.67 1.65711 122.004 1.16572 121.177 0.777172C120.35 0.400053 119.431 0.20578 118.408 0.20578C117.386 0.20578 116.582 0.377198 115.812 0.708605C115.042 1.05144 114.445 1.53141 114.009 2.17137C113.572 2.81133 113.354 3.57699 113.354 4.47979C113.354 5.38259 113.48 5.87399 113.733 6.37681C113.986 6.87963 114.33 7.29104 114.744 7.59959C115.157 7.91957 115.628 8.18241 116.122 8.38811C116.628 8.60524 117.133 8.78808 117.627 8.94807C118.133 9.10806 118.592 9.29091 119.006 9.48518C119.419 9.67946 119.764 9.91944 120.017 10.2051C120.269 10.4908 120.396 10.8565 120.396 11.3022C120.396 11.7479 120.178 12.2279 119.73 12.525C119.282 12.8221 118.684 12.9707 117.926 12.9707C117.168 12.9707 116.375 12.8107 115.801 12.4907C115.215 12.1707 114.709 11.725 114.273 11.1422L112.354 13.0507C113.044 13.8735 113.825 14.4791 114.686 14.8905C115.548 15.3019 116.582 15.5077 117.777 15.5077C118.971 15.5077 120.821 15.1077 121.797 14.3192C122.774 13.5306 123.268 12.445 123.268 11.0622C123.268 9.67945 123.141 9.63374 122.889 9.10806C122.636 8.58238 122.291 8.14812 121.878 7.80529H121.866Z" fill="white"></path>
<path d="M134.262 5.07397H131.47V10.9365C131.47 11.5764 131.309 12.0678 130.976 12.4221C130.655 12.7763 130.195 12.9478 129.609 12.9478C129.023 12.9478 128.897 12.8678 128.61 12.7192C128.323 12.5592 128.116 12.3306 127.966 12.0335C127.829 11.725 127.748 11.3707 127.748 10.9479V5.0854H124.945V11.0164C124.945 11.9078 125.14 12.6849 125.542 13.3706C125.945 14.0448 126.484 14.5819 127.197 14.959C127.897 15.3362 128.702 15.5304 129.609 15.5304C130.517 15.5304 131.321 15.3476 132.022 14.9705C132.722 14.5934 133.274 14.0677 133.664 13.3934C134.055 12.7192 134.25 11.9307 134.25 11.0279V5.09683L134.262 5.07397Z" fill="white"></path>
<path d="M137.881 3.42849C138.352 3.42849 138.731 3.27993 139.018 2.97138C139.305 2.66283 139.454 2.28571 139.454 1.84002C139.454 1.39434 139.305 1.02865 139.018 0.720097C138.731 0.411546 138.352 0.251556 137.881 0.251556C137.41 0.251556 137.053 0.411546 136.755 0.720097C136.456 1.02865 136.307 1.40577 136.307 1.84002C136.307 2.27428 136.456 2.67426 136.755 2.97138C137.053 3.27993 137.433 3.42849 137.881 3.42849Z" fill="white"></path>
<path d="M139.282 5.07397H136.479V15.3019H139.282V5.07397Z" fill="white"></path>
<path d="M143.257 15.3017H146.049V7.50795H148.45V5.07382H146.049V0.822662H143.257V5.07382H140.856V7.50795H143.257V15.3017Z" fill="white"></path>
<path d="M158.904 7.33671C158.467 6.57105 157.87 5.96537 157.112 5.51969C156.353 5.074 155.48 4.85687 154.481 4.85687C153.481 4.85687 152.562 5.09686 151.735 5.5654C150.908 6.03394 150.265 6.6739 149.794 7.47385C149.323 8.2738 149.081 9.17659 149.081 10.1937C149.081 11.2107 149.323 12.1364 149.817 12.9478C150.311 13.7477 150.965 14.3877 151.804 14.8448C152.643 15.3019 153.596 15.5305 154.676 15.5305C155.756 15.5305 156.284 15.3819 157.008 15.0848C157.72 14.7877 158.329 14.3534 158.823 13.7706L157.18 12.1364C156.87 12.4907 156.503 12.7535 156.078 12.9249C155.653 13.0963 155.182 13.1878 154.653 13.1878C154.125 13.1878 153.562 13.0621 153.125 12.8221C152.689 12.5707 152.344 12.2278 152.114 11.7593C152.022 11.5764 151.942 11.3822 151.896 11.1765L159.409 11.1536C159.467 10.9136 159.501 10.6965 159.524 10.5137C159.547 10.3194 159.558 10.1365 159.558 9.95369C159.558 8.98232 159.34 8.11381 158.915 7.33671H158.904ZM153.045 7.51956C153.458 7.26815 153.941 7.15387 154.492 7.15387C155.044 7.15387 155.457 7.26815 155.825 7.48528C156.181 7.7024 156.468 8.02238 156.652 8.42236C156.744 8.61663 156.813 8.84519 156.87 9.08517H151.896C151.942 8.91375 152.011 8.73091 152.103 8.55949C152.321 8.11381 152.643 7.77097 153.045 7.51956Z" fill="white"></path>
<path d="M138.32 19.417H137.725V24.9999H138.11H138.32H141.202V24.4575H138.32V19.417Z" fill="white"></path>
<path d="M144.659 21.7297C144.643 21.713 144.635 21.688 144.627 21.6713C144.488 21.4627 144.301 21.3042 144.081 21.1874C143.854 21.0706 143.601 21.0122 143.316 21.0122C143.032 21.0122 142.657 21.104 142.372 21.2792C142.096 21.4544 141.876 21.6963 141.713 21.9967C141.55 22.297 141.469 22.639 141.469 23.0145C141.469 23.3899 141.55 23.7236 141.713 24.0239C141.876 24.3243 142.096 24.5578 142.372 24.733C142.649 24.9082 142.966 25 143.325 25C143.683 25 143.854 24.9416 144.081 24.8248C144.309 24.708 144.488 24.5412 144.627 24.3326C144.643 24.3159 144.651 24.2909 144.659 24.2742V24.9249H145.213V21.104H144.659V21.7464V21.7297ZM144.342 24.0406C144.106 24.3076 143.797 24.441 143.414 24.441C143.032 24.441 142.918 24.3827 142.706 24.2575C142.503 24.1324 142.34 23.9655 142.218 23.7486C142.096 23.5317 142.039 23.2814 142.039 22.9978C142.039 22.7141 142.096 22.4639 142.218 22.2469C142.34 22.03 142.494 21.8548 142.698 21.7297C142.901 21.6046 143.137 21.5462 143.398 21.5462C143.658 21.5462 143.886 21.6046 144.073 21.7297C144.261 21.8548 144.415 22.0217 144.521 22.2386C144.627 22.4555 144.684 22.7141 144.684 22.9978C144.684 23.4316 144.57 23.782 144.334 24.0489L144.342 24.0406Z" fill="white"></path>
<path d="M147.332 19.683H146.845V21.2617H146.015V21.7607H146.845V25H147.332V21.7607H148.154V21.2617H147.332V19.683Z" fill="white"></path>
<path d="M151.88 21.7297C151.863 21.713 151.855 21.688 151.847 21.6713C151.709 21.4627 151.522 21.3042 151.302 21.1874C151.074 21.0706 150.822 21.0122 150.537 21.0122C150.252 21.0122 149.877 21.104 149.593 21.2792C149.316 21.4544 149.096 21.6963 148.933 21.9967C148.771 22.297 148.689 22.639 148.689 23.0145C148.689 23.3899 148.771 23.7236 148.933 24.0239C149.096 24.3243 149.316 24.5578 149.593 24.733C149.869 24.9082 150.187 25 150.545 25C150.903 25 151.074 24.9416 151.302 24.8248C151.53 24.708 151.709 24.5412 151.847 24.3326C151.863 24.3159 151.872 24.2909 151.88 24.2742V24.9249H152.433V21.104H151.88V21.7464V21.7297ZM151.554 24.0406C151.318 24.3076 151.009 24.441 150.626 24.441C150.244 24.441 150.13 24.3827 149.918 24.2575C149.715 24.1324 149.552 23.9655 149.43 23.7486C149.308 23.5317 149.251 23.2814 149.251 22.9978C149.251 22.7141 149.308 22.4639 149.43 22.2469C149.552 22.03 149.707 21.8548 149.91 21.7297C150.114 21.6046 150.35 21.5462 150.61 21.5462C150.87 21.5462 151.098 21.6046 151.286 21.7297C151.473 21.8548 151.627 22.0217 151.733 22.2386C151.839 22.4555 151.896 22.7141 151.896 22.9978C151.896 23.4316 151.782 23.782 151.546 24.0489L151.554 24.0406Z" fill="white"></path>
<path d="M158.654 21.1908C158.435 21.0718 158.182 21.0122 157.913 21.0122C157.644 21.0122 157.391 21.0718 157.164 21.1908C156.937 21.3098 156.752 21.4799 156.617 21.701C156.6 21.7265 156.592 21.752 156.575 21.7775C156.558 21.752 156.55 21.7265 156.533 21.701C156.407 21.4799 156.23 21.3098 156.019 21.1908C155.801 21.0718 155.556 21.0122 155.287 21.0122C155.018 21.0122 154.757 21.0718 154.538 21.1908C154.353 21.2928 154.201 21.4374 154.075 21.6074V21.0888H153.503V24.983H154.075V22.5937C154.075 22.3812 154.126 22.1941 154.218 22.0411C154.311 21.888 154.445 21.769 154.605 21.684C154.765 21.5989 154.942 21.5564 155.144 21.5564C155.43 21.5564 155.674 21.6499 155.868 21.8455C156.061 22.0326 156.154 22.2876 156.154 22.6107V24.9915H156.735V22.6022C156.735 22.3897 156.785 22.2026 156.878 22.0496C156.97 21.8965 157.105 21.7775 157.265 21.6925C157.425 21.6074 157.602 21.5649 157.795 21.5649C158.09 21.5649 158.334 21.6584 158.528 21.854C158.721 22.0411 158.814 22.2961 158.814 22.6192V25H159.386V22.5087C159.386 22.2026 159.319 21.939 159.192 21.7265C159.066 21.5054 158.889 21.3353 158.671 21.2163L158.654 21.1908Z" fill="white"></path>
</svg>